<?xml version="1.0" encoding="utf-8"?>
<!-- Generator: Adobe Illustrator 22.1.0, SVG Export Plug-In . SVG Version: 6.00 Build 0)  -->
<svg version="1.1" xmlns="http://www.w3.org/2000/svg" xmlns:xlink="http://www.w3.org/1999/xlink" x="0px" y="0px"
	 viewBox="0 0 421 135" style="enable-background:new 0 0 421 135;" xml:space="preserve">
<style type="text/css">
	.st0{display:none;}
	.st1{fill:#FFFFFF;}
	.st2{fill:none;stroke:#FFFFFF;stroke-width:3;stroke-miterlimit:10;}
</style>
<g id="Camada_1">
</g>
<g id="Camada_2">
	<rect x="-5" y="-4" class="st0" width="433" height="200"/>
	<g>
		<path class="st1" d="M33.6,58.6v9.5H22.8V16.8H60v9.4H33.6v11.5h23.3v9.9H33.6V58.6z"/>
		<path class="st1" d="M103.4,58.6h28.8V68H92.5V16.8h37.3v9.4h-26.4v11.5h23.3v9.9h-23.3V58.6z"/>
		<path class="st1" d="M166.5,67.7V16.8h11v41.5h26.2v9.4H166.5z"/>
		<path class="st1" d="M239.2,17h11.2v51.1h-11.2V17z"/>
		<path class="st1" d="M287.1,17h23c12.8,0,17.7,8.1,17.7,16.4s-4.9,16.4-17.7,16.4h-11.8v18.3h-11.2V17z M298.3,41.1h8.7
			c5.2,0,9.9-1.1,9.9-7.7c0-6.5-4.7-7.7-9.9-7.7h-8.7V41.1z"/>
		<path class="st1" d="M371.7,58.6h28.8V68h-39.7V16.8h37.3v9.4h-26.4v11.5H395v9.9h-23.3V58.6z"/>
		<path class="st1" d="M24.7,82.8v33.3h-4.8V82.8H24.7z M25.6,98.2l11.6-15.4h6.1L30.5,99.3l14.1,16.8h-6.3l-12.7-15.4V98.2z"/>
		<path class="st1" d="M85.6,106.3h-12c-1.3,3.1-3,7.1-4,9.8h-5.2l13.4-33.8h3.5l13.4,33.8h-5.1L85.6,106.3z M75.4,101.8h8.3
			L79.6,90L75.4,101.8z"/>
		<path class="st1" d="M123.5,116.1h-4.8V82.7h3.9l11,16.2l11-16.2h3.8v33.4h-4.8V92.6l-8.7,13h-2.7l-8.7-13V116.1z"/>
		<path class="st1" d="M192.3,87.5h-6.2v23.7h6.2v4.8h-17.2v-4.8h6.2V87.5h-6.2v-4.8h17.2V87.5z"/>
		<path class="st1" d="M221.7,116.1h-4.8V82.7h3.9l11,16.2l11-16.2h3.8v33.4h-4.8V92.6l-8.7,13h-2.7l-8.7-13V116.1z"/>
		<path class="st1" d="M272.9,106.1V82.8h4.9v23.4c0,3.7,4,5.5,7.5,5.5c3.5,0,7.4-1.9,7.4-5.5V82.8h4.9v23.4
			c0,6.8-6.6,10.3-12.3,10.3C279.4,116.4,272.9,112.9,272.9,106.1z"/>
		<path class="st1" d="M330.8,99.2h5.6c4.1,0,6.1-2.9,6.1-5.8c0-2.9-2-5.8-6.1-5.8H329v28.5h-4.8V82.7h12.2
			c7.2,0,10.9,5.3,10.9,10.6c0,4.7-2.9,9.2-8.6,10.2l10.5,12.5h-6.2l-12.2-14.6V99.2z"/>
		<path class="st1" d="M391.7,106.3h-12c-1.3,3.1-3,7.1-4,9.8h-5.2l13.4-33.8h3.5l13.4,33.8h-5.1L391.7,106.3z M381.5,101.8h8.3
			L385.7,90L381.5,101.8z"/>
	</g>
	<rect x="3.5" y="2.4" class="st2" width="414" height="129.1"/>
</g>
</svg>
